<?xml version="1.0" standalone="no"?><!DOCTYPE svg PUBLIC "-//W3C//DTD SVG 1.1//EN" "http://www.w3.org/Graphics/SVG/1.1/DTD/svg11.dtd"><svg t="1656587612828" class="icon" viewBox="0 0 1024 1024" version="1.1" xmlns="http://www.w3.org/2000/svg" p-id="5417" xmlns:xlink="http://www.w3.org/1999/xlink" width="200" height="200"><defs><style type="text/css">@font-face { font-family: feedback-iconfont; src: url("//at.alicdn.com/t/font_1031158_u69w8yhxdu.woff2?t=1630033759944") format("woff2"), url("//at.alicdn.com/t/font_1031158_u69w8yhxdu.woff?t=1630033759944") format("woff"), url("//at.alicdn.com/t/font_1031158_u69w8yhxdu.ttf?t=1630033759944") format("truetype"); }
</style></defs><path d="M160 512a31.168 31.168 0 0 0-23.04 8.96 31.168 31.168 0 0 0-8.96 23.04v64a31.808 31.808 0 0 0 30.016 32h706.048a31.168 31.168 0 0 0 22.976-8.96 31.168 31.168 0 0 0 8.96-23.04v-64a31.168 31.168 0 0 0-8.96-23.04 31.168 31.168 0 0 0-23.04-8.96h-704zM896 452.992c19.328 7.36 34.816 19.2 46.464 35.456 11.712 16.32 17.536 34.816 17.536 55.488v64c0 18.048-4.672 34.688-14.016 50.048-9.344 15.36-22.016 27.008-38.016 35.008l-52.992 140.992a94.72 94.72 0 0 1-35.008 44.48c-16 11.008-33.984 16.832-54.016 17.536H257.984a99.136 99.136 0 0 1-54.016-17.536 94.784 94.784 0 0 1-35.008-44.48l-52.992-140.992a91.776 91.776 0 0 1-38.016-35.008c-9.344-15.36-14.08-32-14.08-50.048v-64c0-20.672 5.888-39.168 17.536-55.488 11.648-16.32 27.2-28.16 46.528-35.456V448c3.328-108.672 41.472-198.848 114.496-270.528 72.96-71.68 163.84-108.48 272.512-110.464 108.672 3.328 198.784 41.344 270.464 113.984 71.68 72.704 108.48 163.392 110.464 272H896zM832 448c-1.984-90.688-33.152-166.144-93.504-226.56C678.144 161.216 602.688 130.048 512 128c-90.688 1.984-166.144 33.152-226.496 93.44C225.152 281.92 193.984 357.376 192 448h640z m-320 256H188.032l40.96 107.008a27.776 27.776 0 0 0 11.008 15.488 31.36 31.36 0 0 0 18.048 5.504h507.968a31.04 31.04 0 0 0 18.048-5.504 27.904 27.904 0 0 0 10.944-15.488L836.032 704H512z" fill="#000000" p-id="5418"></path></svg>